# xmcd
#
# Track frame offsets:
#	150
#	18557
#	34807
#	57989
#	72611
#	87546
#	105898
#	121991
#	142073
#	159397
#	177295
#	196084
#	212961
#
# Disc length: 2958 seconds
#
# Revision: 1
# Processed by: cddbd v1.5.2PL0 Copyright (c) Steve Scherf et al.
# Submitted via: audiograbber 1.83.01
#
DISCID=bb0b8c0d
DTITLE=The Road Hammers - Blood Sweat and Steel
DYEAR=2008
DGENRE=Country
TTITLE0=I'm A Road Hammer
TTITLE1=Workin' Hard At Lovin' You
TTITLE2=The Hammer Goin' Down
TTITLE3=East Bound And Down
TTITLE4=I Don't Know When To Quit
TTITLE5=Girl On The Billboard
TTITLE6=I've Got The Scars To Prove It
TTITLE7=Nashville Bound
TTITLE8=Overdrive
TTITLE9=Keep On Truckin'
TTITLE10=Willin'
TTITLE11=Heart With Four Wheel Drive
TTITLE12=Flat Tires (Bloopers, Out-Takes 'n Such)
EXTD=
EXTT0=
EXTT1=
EXTT2=
EXTT3=
EXTT4=
EXTT5=
EXTT6=
EXTT7=
EXTT8=
EXTT9=
EXTT10=
EXTT11=
EXTT12=
PLAYORDER=
